<?xml version="1.0" encoding="UTF-8"?>
<svg id="Layer_2" data-name="Layer 2" xmlns="http://www.w3.org/2000/svg" viewBox="0 0 2884.72 403.53">
  <defs>
    <style>
      .cls-1 {
        fill: #fff;
      }

      .cls-2 {
        fill: #0075bf;
      }
    </style>
  </defs>
  <g id="_로고" data-name="로고">
    <g>
      <polygon class="cls-2" points="815.15 403.53 0 403.53 90.63 0 895.58 0 815.15 403.53"/>
      <g>
        <path class="cls-2" d="M991.85,135.21h88.2c49.5,0,59.4,26.1,54.9,47.34-4.14,19.44-16.56,32.94-34.38,40.86l29.7,57.42h-59.22l-22.68-48.96h-25.2l-10.44,48.96h-51.84l30.96-145.61ZM1030.37,197.49h21.42c14.58,0,28.62.9,31.68-13.32,2.7-12.6-8.82-13.5-22.86-13.5h-24.48l-5.76,26.82Z"/>
        <path class="cls-2" d="M1265.62,243.93c-14.04,31.86-39.6,39.6-73.8,39.6-40.86,0-67.86-11.34-57.6-59.4,9.36-43.92,42.48-59.76,82.8-59.76s63.36,17.64,55.08,59.76c-.9,3.78-2.16,8.28-3.24,11.7h-90.36c-.18,12.78,6.3,18.18,20.88,18.18,9,0,18.18-3.06,20.7-10.08h45.54ZM1184.09,210.27h44.82c0-10.08-4.86-14.76-18.36-14.76s-21.6,3.78-26.46,14.76Z"/>
        <path class="cls-2" d="M1402.06,280.83h-47.34l-.36-6.84h-.54c-13.68,7.38-27.9,9.54-44.28,9.54-25.2,0-40.68-10.08-35.82-33.3,7.56-35.28,53.46-39.42,92.7-41.58l.36-1.62c2.52-11.52-4.86-14.22-12.96-14.22-15.3,0-17.64,6.48-18.72,11.88h-46.8c7.38-31.86,41.94-40.32,72.9-40.32,57.24,0,60.12,25.38,54,54.54l-13.14,61.92ZM1361.21,233.31c-5.94.72-12.06,1.62-19.8,3.24-11.7,2.52-18,4.5-19.62,12.06-1.26,5.94,3.06,8.28,12.42,8.28,11.16,0,23.4-6.3,24.84-13.5l2.16-10.08Z"/>
        <path class="cls-2" d="M1471.18,280.83h-51.12l32.04-151.19h51.12l-32.04,151.19Z"/>
        <path class="cls-2" d="M1520.14,135.21h81.36c54.72,0,66.6,35.82,58.68,72.54-9.54,44.82-42.3,73.08-99.54,73.08h-71.46l30.96-145.61ZM1547.68,244.11h17.82c31.32,0,41.22-23.4,44.1-36.9,1.98-9.18,4.5-35.28-32.4-35.28h-14.22l-15.3,72.18Z"/>
        <path class="cls-2" d="M1795.36,243.93c-14.04,31.86-39.6,39.6-73.8,39.6-40.86,0-67.86-11.34-57.6-59.4,9.36-43.92,42.48-59.76,82.8-59.76s63.36,17.64,55.08,59.76c-.9,3.78-2.16,8.28-3.24,11.7h-90.36c-.18,12.78,6.3,18.18,20.88,18.18,9,0,18.18-3.06,20.7-10.08h45.54ZM1713.82,210.27h44.82c0-10.08-4.86-14.76-18.36-14.76s-21.6,3.78-26.46,14.76Z"/>
        <path class="cls-2" d="M1893.46,203.07c1.62-8.82-5.94-10.98-13.5-10.98s-14.76,1.44-16.02,7.74c-.72,2.7,1.8,4.32,4.14,5.22,7.56,3.06,25.56,4.14,41.58,8.64,16.02,4.68,30.96,10.98,27,29.7-7.02,33.3-43.38,40.14-74.88,40.14s-63.36-7.74-56.52-41.4h48.6c-1.8,10.08,5.4,12.78,15.66,12.78,8.64,0,17.1-1.98,18.36-7.74,1.08-5.22-2.7-7.2-25.2-10.8-36.54-6.12-51.84-16.38-47.7-35.82,6.48-30.78,43.2-36.18,69.48-36.18,27.9,0,58.68,7.02,55.08,38.7h-46.08Z"/>
        <path class="cls-2" d="M1965.28,167.97h51.12l-23.94,112.86h-51.12l23.94-112.86ZM2018.38,158.97h-51.12l6.12-29.34h51.12l-6.12,29.34Z"/>
        <path class="cls-2" d="M2147.97,260.67c-4.5,21.24-19.44,50.76-79.2,50.76-33.84,0-64.98-5.94-60.12-37.26h51.3c-1.08,6.66,3.24,10.62,13.68,10.62,15.84,0,20.88-10.98,22.86-19.8l1.26-6.48h-.36c-9.36,5.94-21.42,8.82-36.18,8.82-39.96,0-49.14-19.8-42.3-52.02,6.84-31.86,26.1-50.94,64.62-50.94,12.78,0,25.56,3.6,31.86,9.36h.36l3.06-5.76h48.78l-19.62,92.7ZM2069.32,217.65c-2.7,12.96,1.98,19.44,15.48,19.44,10.62,0,19.98-5.94,22.68-19.44l.54-2.52c2.88-13.5-3.24-19.44-14.58-19.44-13.5,0-20.7,5.94-23.58,19.44l-.54,2.52Z"/>
        <path class="cls-2" d="M2185.6,167.97h47.34l-.18,9.54h.54c11.88-9.72,25.56-13.14,46.26-13.14,23.94,0,43.2,12.42,37.62,38.34l-16.56,78.12h-50.76l12.6-59.58c2.88-13.14,2.88-22.32-12.06-22.32-8.82,0-21.96,7.02-25.74,25.2l-12.06,56.7h-50.94l23.94-112.86Z"/>
        <path class="cls-2" d="M2369.74,172.47h-46.08l7.92-37.26h143.27l-7.92,37.26h-46.26l-23.04,108.18h-50.94l23.04-108.18Z"/>
        <path class="cls-2" d="M2579.25,243.93c-14.04,31.86-39.6,39.6-73.8,39.6-40.86,0-67.86-11.34-57.6-59.4,9.36-43.92,42.48-59.76,82.8-59.76s63.36,17.64,55.08,59.76c-.9,3.78-2.16,8.28-3.24,11.7h-90.36c-.18,12.78,6.3,18.18,20.88,18.18,9,0,18.18-3.06,20.7-10.08h45.54ZM2497.72,210.27h44.82c0-10.08-4.86-14.76-18.36-14.76s-21.6,3.78-26.46,14.76Z"/>
        <path class="cls-2" d="M2724.33,237.99c-10.98,36.9-40.68,45.54-73.8,45.54-40.86,0-67.86-11.34-57.6-59.4,9.36-43.92,42.48-59.76,82.8-59.76,35.64,0,58.5,12.6,54.36,46.08h-42.48c.36-8.64-4.5-14.94-18.36-14.94-18,0-26.1,8.28-30.06,26.64l-.54,2.7c-3.96,18.54,1.62,27.18,18.54,27.18,12.06,0,21.24-3.78,23.58-14.04h43.56Z"/>
        <path class="cls-2" d="M2759.98,129.63h51.12l-9.72,45.9h.54c12.06-7.2,24.66-11.16,43.74-11.16,24.3,0,43.56,12.06,38.16,37.44l-16.74,79.02h-50.94l12.96-61.2c2.7-12.96,2.88-21.6-12.24-21.6-7.92,0-21.78,7.2-24.66,21.06l-13.14,61.74h-51.12l32.04-151.19Z"/>
      </g>
    </g>
    <g>
      <path class="cls-1" d="M117.76,89.48h136.02c76.34,0,91.61,40.25,84.67,73.01-6.38,29.98-25.54,50.8-53.02,63.02l45.8,88.55h-91.33l-34.98-75.51h-38.86l-16.1,75.51h-79.95l47.75-224.58ZM177.17,185.53h33.03c22.49,0,44.14,1.39,48.86-20.54,4.16-19.43-13.6-20.82-35.26-20.82h-37.75l-8.88,41.36Z"/>
      <path class="cls-1" d="M390.08,89.48h125.48c84.39,0,102.71,55.24,90.5,111.87-14.71,69.12-65.24,112.71-153.51,112.71h-110.21l47.75-224.58ZM432.56,257.43h27.48c48.3,0,63.57-36.09,68.01-56.91,3.05-14.16,6.94-54.41-49.97-54.41h-21.93l-23.6,111.32Z"/>
      <path class="cls-1" d="M680.45,146.94h-71.07l12.21-57.46h220.97l-12.21,57.46h-71.34l-35.53,166.84h-78.56l35.53-166.84Z"/>
    </g>
  </g>
</svg>